<svg width="42" height="42" viewBox="0 0 42 42" fill="none" xmlns="http://www.w3.org/2000/svg">
<path d="M38.5 21C38.5 11.335 30.665 3.5 21 3.5C16.4055 3.5 12.2245 5.27059 9.10217 8.16667H12.25C13.2165 8.16667 14 8.95017 14 9.91667C14 10.8832 13.2165 11.6667 12.25 11.6667H5.25C4.2835 11.6667 3.5 10.8832 3.5 9.91667V2.91667C3.5 1.95017 4.2835 1.16667 5.25 1.16667C6.2165 1.16667 7 1.95017 7 2.91667V5.34725C10.7153 2.02197 15.6215 0 21 0C32.598 0 42 9.40202 42 21C42 32.598 32.598 42 21 42C9.40202 42 0 32.598 0 21C0 19.9073 0.083451 18.8342 0.244327 17.7865C0.375665 16.9312 1.13454 16.3333 1.99985 16.3333C3.07087 16.3333 3.84639 17.3559 3.68954 18.4153C3.56468 19.2588 3.5 20.1218 3.5 21C3.5 30.665 11.335 38.5 21 38.5C30.665 38.5 38.5 30.665 38.5 21ZM22.1667 11.0833C22.1667 10.1168 21.3832 9.33333 20.4167 9.33333C19.4502 9.33333 18.6667 10.1168 18.6667 11.0833V21.5833C18.6667 22.5498 19.4502 23.3333 20.4167 23.3333H26.25C27.2165 23.3333 28 22.5498 28 21.5833C28 20.6168 27.2165 19.8333 26.25 19.8333H22.1667V11.0833Z" fill="white"/>
</svg>
