<svg width="29" height="38" viewBox="0 0 29 38" fill="none" xmlns="http://www.w3.org/2000/svg">
<path d="M15.9871 4.87319C16.5796 4.42634 17.1671 4.08314 17.6929 3.84139C17.8519 7.74111 19.7586 10.6735 21.5938 13.2636C21.7617 13.5005 21.9283 13.734 22.0929 13.9648C24.0793 16.7488 25.7803 19.1329 25.9659 22.289C26.1797 25.9224 25.2735 28.9942 23.5166 31.1322C21.781 33.2443 19.1042 34.5833 15.4586 34.5833C11.6795 34.5833 8.83944 33.6139 6.85739 31.9879C4.88463 30.3695 3.62381 27.988 3.20269 24.8891C2.78837 21.8401 3.52623 19.6731 4.32329 18.2835C4.48005 18.0102 4.6401 17.7654 4.79573 17.5487L5.37321 18.6455C6.38346 20.5641 8.72721 21.3446 10.686 20.4145C13.0797 19.278 13.5904 16.359 12.8304 14.3096C12.2986 12.8758 12.0156 11.125 12.6309 9.37204C13.3209 7.40649 14.6307 5.89627 15.9871 4.87319ZM4.28682 14.0923L4.2824 14.0956L4.27516 14.1011L4.25614 14.1157C4.24149 14.127 4.22294 14.1416 4.20077 14.1595C4.15644 14.1951 4.09759 14.2439 4.0266 14.306C3.88472 14.43 3.6937 14.6077 3.47282 14.8402C3.03164 15.3046 2.46691 15.9929 1.93784 16.9153C0.8705 18.7761 -0.0264189 21.5493 0.477739 25.2594C0.975112 28.9195 2.5121 31.9801 5.1132 34.114C7.70503 36.2402 11.2149 37.3333 15.4586 37.3333C19.8357 37.3333 23.328 35.6932 25.6413 32.8781C27.9333 30.089 28.9558 26.2858 28.7112 22.1275C28.4765 18.1387 26.3038 15.1123 24.3846 12.4389C24.1992 12.1807 24.0163 11.9259 23.8377 11.6738C21.7442 8.71903 20.091 5.99533 20.4926 2.18579C20.5335 1.79817 20.4079 1.41143 20.1472 1.12173C19.8864 0.832042 19.515 0.666626 19.1252 0.666626C18.4249 0.666626 17.6236 0.883356 16.8477 1.20927C16.0479 1.54522 15.1805 2.03706 14.3311 2.67769C12.6359 3.95633 10.941 5.88361 10.0362 8.46121C9.1336 11.0324 9.59086 13.4833 10.252 15.2658C10.6861 16.4364 10.2153 17.5938 9.50652 17.9303C8.87974 18.2279 8.12978 17.9782 7.80652 17.3642L6.32643 14.5532C6.13916 14.1976 5.80565 13.9417 5.41364 13.8528C5.02163 13.764 4.60911 13.8521 4.28682 14.0923Z" fill="white"/>
</svg>
