<svg width="18" height="15" viewBox="0 0 18 15" fill="none" xmlns="http://www.w3.org/2000/svg">
<path d="M3.58341 3.66671C3.58341 2.51611 4.51615 1.58337 5.66675 1.58337C6.81734 1.58337 7.75008 2.51611 7.75008 3.66671C7.75008 4.8173 6.81734 5.75004 5.66675 5.75004C4.51615 5.75004 3.58341 4.8173 3.58341 3.66671ZM5.66675 0.333374C3.8258 0.333374 2.33341 1.82576 2.33341 3.66671C2.33341 5.50766 3.8258 7.00004 5.66675 7.00004C7.5077 7.00004 9.00008 5.50766 9.00008 3.66671C9.00008 1.82576 7.5077 0.333374 5.66675 0.333374ZM11.9167 4.50004C11.9167 3.80968 12.4764 3.25004 13.1667 3.25004C13.8571 3.25004 14.4167 3.80968 14.4167 4.50004C14.4167 5.1904 13.8571 5.75004 13.1667 5.75004C12.4764 5.75004 11.9167 5.1904 11.9167 4.50004ZM13.1667 2.00004C11.786 2.00004 10.6667 3.11933 10.6667 4.50004C10.6667 5.88075 11.786 7.00004 13.1667 7.00004C14.5475 7.00004 15.6667 5.88075 15.6667 4.50004C15.6667 3.11933 14.5475 2.00004 13.1667 2.00004ZM10.8738 12.8648C11.459 13.1027 12.2098 13.25 13.1676 13.25C15.0695 13.25 16.1556 12.6689 16.7483 11.9518C17.0359 11.6037 17.1823 11.2523 17.2565 10.983C17.2935 10.8485 17.3129 10.7334 17.323 10.6475C17.3281 10.6045 17.3309 10.5685 17.3324 10.5406C17.3332 10.5267 17.3337 10.5148 17.3339 10.505L17.3342 10.4919L17.3342 10.4866L17.3342 10.4843L17.3342 10.4822C17.3342 9.47952 16.5214 8.66671 15.5188 8.66671H10.8164C10.7935 8.66671 10.7708 8.66713 10.7481 8.66797C11.0765 9.01053 11.3156 9.4392 11.4284 9.91671H15.5188C15.8284 9.91671 16.0799 10.1655 16.0842 10.4741C16.0839 10.4789 16.0832 10.488 16.0816 10.501C16.0779 10.5323 16.0696 10.5847 16.0513 10.651C16.0148 10.7835 15.9399 10.9678 15.7848 11.1555C15.492 11.5097 14.8073 12 13.1676 12C12.3508 12 11.7711 11.8784 11.3586 11.7125C11.2693 12.046 11.1211 12.4482 10.8738 12.8648ZM2.54175 8.66671C1.50621 8.66671 0.666748 9.50617 0.666748 10.5417V10.7509L0.666751 10.7519L0.66676 10.7541L0.666803 10.7593L0.667041 10.7731C0.667284 10.7839 0.66772 10.7977 0.668496 10.8143C0.670045 10.8475 0.672952 10.8921 0.678395 10.9465C0.689258 11.0551 0.710353 11.2042 0.751457 11.3803C0.833371 11.7314 0.997201 12.2004 1.3266 12.671C2.00896 13.6458 3.3099 14.5 5.66675 14.5C8.0236 14.5 9.32453 13.6458 10.0069 12.671C10.3363 12.2004 10.5001 11.7314 10.582 11.3803C10.6231 11.2042 10.6442 11.0551 10.6551 10.9465C10.6605 10.8921 10.6635 10.8475 10.665 10.8143C10.6658 10.7977 10.6662 10.7839 10.6665 10.7731L10.6667 10.7593L10.6667 10.7541L10.6667 10.7519L10.6667 10.5417C10.6667 9.50617 9.82728 8.66671 8.79175 8.66671H2.54175ZM1.91714 10.756L1.91675 10.7456V10.5417C1.91675 10.1965 2.19657 9.91671 2.54175 9.91671H8.79175C9.13693 9.91671 9.41675 10.1965 9.41675 10.5417V10.7456L9.41636 10.756C9.41577 10.7686 9.41441 10.7911 9.41131 10.8221C9.40508 10.8844 9.39199 10.9795 9.36474 11.0963C9.30993 11.3312 9.20033 11.6435 8.98285 11.9541C8.57146 12.5418 7.6849 13.25 5.66675 13.25C3.6486 13.25 2.76203 12.5418 2.35064 11.9541C2.13317 11.6435 2.02356 11.3312 1.96876 11.0963C1.9415 10.9795 1.92842 10.8844 1.92219 10.8221C1.91909 10.7911 1.91772 10.7686 1.91714 10.756Z" fill="white"/>
</svg>
