<svg width="34" height="36" viewBox="0 0 34 36" fill="none" xmlns="http://www.w3.org/2000/svg">
<path d="M9.20845 6C8.44905 6 7.83343 6.61561 7.83343 7.375V15.625C7.83343 16.3844 8.44905 17 9.20845 17H19.2919C20.0513 17 20.6669 16.3844 20.6669 15.625V7.375C20.6669 6.61561 20.0513 6 19.2919 6H9.20845ZM10.5835 14.25V8.75H17.9169V14.25H10.5835ZM7.37509 0.5C4.59062 0.5 2.33336 2.75723 2.33336 5.54167V32.5833H1.87502C1.11562 32.5833 0.5 33.1989 0.5 33.9583C0.5 34.7177 1.11562 35.3333 1.87502 35.3333H26.6254C27.3848 35.3333 28.0004 34.7177 28.0004 33.9583C28.0004 33.1989 27.3848 32.5833 26.6254 32.5833H26.167V29.278C26.8565 29.633 27.6386 29.8334 28.4674 29.8334C31.2468 29.8334 33.5 27.5802 33.5 24.8009V14.0972C33.5 13.0064 33.1462 11.9449 32.4917 11.0722L30.475 8.38336C30.0193 7.77584 29.1575 7.65272 28.5499 8.10836C27.9424 8.56399 27.8193 9.42584 28.2749 10.0334L30.2916 12.7222C30.5891 13.1189 30.75 13.6014 30.75 14.0972V24.8009C30.75 26.0614 29.728 27.0834 28.4674 27.0834C27.2068 27.0834 26.1849 26.0614 26.1849 24.8009V21.5834C26.1849 21.5076 26.1788 21.4333 26.167 21.3609V5.54167C26.167 2.75723 23.9098 0.5 21.1253 0.5H7.37509ZM23.417 32.5833H5.0834V5.54167C5.0834 4.27601 6.10942 3.25 7.37509 3.25H21.1253C22.3909 3.25 23.417 4.27601 23.417 5.54167V32.5833Z" fill="white"/>
</svg>
