<svg width="16" height="17" viewBox="0 0 16 17" fill="none" xmlns="http://www.w3.org/2000/svg">
<path d="M9.20875 1.10995C8.5105 0.52113 7.4895 0.52113 6.79125 1.10995L1.16627 5.85337C0.743792 6.20964 0.5 6.73412 0.5 7.28676V15.045C0.5 15.8504 1.15292 16.5033 1.95833 16.5033H14.0417C14.8471 16.5033 15.5 15.8504 15.5 15.045V7.28676C15.5 6.73412 15.2562 6.20964 14.8337 5.85337L9.20875 1.10995ZM7.59708 2.06554C7.82983 1.86926 8.17017 1.86926 8.40292 2.06554L14.0279 6.80896C14.1687 6.92771 14.25 7.10255 14.25 7.28676V15.045C14.25 15.16 14.1567 15.2533 14.0417 15.2533H1.95833C1.84327 15.2533 1.75 15.16 1.75 15.045V7.28676C1.75 7.10255 1.83127 6.92771 1.97209 6.80896L7.59708 2.06554Z" fill="white"/>
</svg>
