<svg width="55" height="21" viewBox="0 0 55 21" fill="none" xmlns="http://www.w3.org/2000/svg">
<rect width="55" height="21" rx="10.5" fill="#D9D9D9"/>
<rect width="55" height="21" rx="10.5" fill="url(#paint0_linear_11_939)"/>
<path d="M8.61055 10.692H10.1705V11.088C10.1705 11.928 10.3665 12.584 10.7585 13.056C11.1505 13.52 11.7865 13.752 12.6665 13.752C13.5465 13.752 14.1825 13.524 14.5745 13.068C14.9745 12.612 15.1745 11.984 15.1745 11.184V6H16.7585V11.244C16.7585 12.108 16.5865 12.832 16.2425 13.416C15.8985 14 15.4185 14.44 14.8025 14.736C14.1865 15.024 13.4745 15.168 12.6665 15.168C11.8665 15.168 11.1585 15.02 10.5425 14.724C9.93455 14.428 9.45855 13.984 9.11455 13.392C8.77855 12.8 8.61055 12.064 8.61055 11.184V10.692ZM20.1341 11.136C20.1341 11.672 20.2421 12.136 20.4581 12.528C20.6741 12.92 20.9821 13.224 21.3821 13.44C21.7901 13.648 22.2741 13.752 22.8341 13.752C23.4021 13.752 23.8861 13.648 24.2861 13.44C24.6861 13.224 24.9941 12.92 25.2101 12.528C25.4261 12.136 25.5341 11.672 25.5341 11.136V6H27.1181V11.196C27.1181 11.988 26.9381 12.684 26.5781 13.284C26.2181 13.876 25.7181 14.34 25.0781 14.676C24.4381 15.004 23.6901 15.168 22.8341 15.168C21.9861 15.168 21.2381 15.004 20.5901 14.676C19.9501 14.34 19.4501 13.876 19.0901 13.284C18.7301 12.684 18.5501 11.988 18.5501 11.196V6H20.1341V11.136ZM28.4658 12.072H30.0738C30.1218 12.432 30.2698 12.748 30.5178 13.02C30.7738 13.292 31.1098 13.504 31.5258 13.656C31.9418 13.8 32.4218 13.872 32.9658 13.872C33.7738 13.872 34.4138 13.748 34.8858 13.5C35.3578 13.244 35.5938 12.9 35.5938 12.468C35.5938 12.116 35.4578 11.852 35.1858 11.676C34.9138 11.5 34.4218 11.368 33.7098 11.28L31.7658 11.028C30.6778 10.884 29.8858 10.616 29.3898 10.224C28.9018 9.824 28.6578 9.26 28.6578 8.532C28.6578 7.98 28.8218 7.504 29.1498 7.104C29.4858 6.696 29.9578 6.384 30.5658 6.168C31.1738 5.944 31.8858 5.832 32.7018 5.832C33.5098 5.832 34.2258 5.952 34.8498 6.192C35.4738 6.432 35.9698 6.768 36.3378 7.2C36.7138 7.624 36.9178 8.124 36.9498 8.7H35.3418C35.3018 8.38 35.1658 8.104 34.9338 7.872C34.7098 7.64 34.4058 7.46 34.0218 7.332C33.6378 7.196 33.1858 7.128 32.6658 7.128C31.9298 7.128 31.3418 7.248 30.9018 7.488C30.4618 7.728 30.2418 8.056 30.2418 8.472C30.2418 8.792 30.3698 9.04 30.6258 9.216C30.8898 9.384 31.3458 9.512 31.9938 9.6L33.9618 9.876C34.7698 9.988 35.4058 10.14 35.8698 10.332C36.3418 10.516 36.6778 10.768 36.8778 11.088C37.0778 11.4 37.1778 11.804 37.1778 12.3C37.1778 12.876 37.0018 13.38 36.6498 13.812C36.2978 14.244 35.8018 14.58 35.1618 14.82C34.5298 15.052 33.7898 15.168 32.9418 15.168C32.0778 15.168 31.3138 15.04 30.6498 14.784C29.9938 14.52 29.4738 14.156 29.0898 13.692C28.7058 13.228 28.4978 12.688 28.4658 12.072ZM41.1913 6.732H42.7753V15H41.1913V6.732ZM37.4713 6H46.4953V7.392H37.4713V6Z" fill="url(#paint1_linear_11_939)"/>
<path d="M8.61055 10.692H10.1705V11.088C10.1705 11.928 10.3665 12.584 10.7585 13.056C11.1505 13.52 11.7865 13.752 12.6665 13.752C13.5465 13.752 14.1825 13.524 14.5745 13.068C14.9745 12.612 15.1745 11.984 15.1745 11.184V6H16.7585V11.244C16.7585 12.108 16.5865 12.832 16.2425 13.416C15.8985 14 15.4185 14.44 14.8025 14.736C14.1865 15.024 13.4745 15.168 12.6665 15.168C11.8665 15.168 11.1585 15.02 10.5425 14.724C9.93455 14.428 9.45855 13.984 9.11455 13.392C8.77855 12.8 8.61055 12.064 8.61055 11.184V10.692ZM20.1341 11.136C20.1341 11.672 20.2421 12.136 20.4581 12.528C20.6741 12.92 20.9821 13.224 21.3821 13.44C21.7901 13.648 22.2741 13.752 22.8341 13.752C23.4021 13.752 23.8861 13.648 24.2861 13.44C24.6861 13.224 24.9941 12.92 25.2101 12.528C25.4261 12.136 25.5341 11.672 25.5341 11.136V6H27.1181V11.196C27.1181 11.988 26.9381 12.684 26.5781 13.284C26.2181 13.876 25.7181 14.34 25.0781 14.676C24.4381 15.004 23.6901 15.168 22.8341 15.168C21.9861 15.168 21.2381 15.004 20.5901 14.676C19.9501 14.34 19.4501 13.876 19.0901 13.284C18.7301 12.684 18.5501 11.988 18.5501 11.196V6H20.1341V11.136ZM28.4658 12.072H30.0738C30.1218 12.432 30.2698 12.748 30.5178 13.02C30.7738 13.292 31.1098 13.504 31.5258 13.656C31.9418 13.8 32.4218 13.872 32.9658 13.872C33.7738 13.872 34.4138 13.748 34.8858 13.5C35.3578 13.244 35.5938 12.9 35.5938 12.468C35.5938 12.116 35.4578 11.852 35.1858 11.676C34.9138 11.5 34.4218 11.368 33.7098 11.28L31.7658 11.028C30.6778 10.884 29.8858 10.616 29.3898 10.224C28.9018 9.824 28.6578 9.26 28.6578 8.532C28.6578 7.98 28.8218 7.504 29.1498 7.104C29.4858 6.696 29.9578 6.384 30.5658 6.168C31.1738 5.944 31.8858 5.832 32.7018 5.832C33.5098 5.832 34.2258 5.952 34.8498 6.192C35.4738 6.432 35.9698 6.768 36.3378 7.2C36.7138 7.624 36.9178 8.124 36.9498 8.7H35.3418C35.3018 8.38 35.1658 8.104 34.9338 7.872C34.7098 7.64 34.4058 7.46 34.0218 7.332C33.6378 7.196 33.1858 7.128 32.6658 7.128C31.9298 7.128 31.3418 7.248 30.9018 7.488C30.4618 7.728 30.2418 8.056 30.2418 8.472C30.2418 8.792 30.3698 9.04 30.6258 9.216C30.8898 9.384 31.3458 9.512 31.9938 9.6L33.9618 9.876C34.7698 9.988 35.4058 10.14 35.8698 10.332C36.3418 10.516 36.6778 10.768 36.8778 11.088C37.0778 11.4 37.1778 11.804 37.1778 12.3C37.1778 12.876 37.0018 13.38 36.6498 13.812C36.2978 14.244 35.8018 14.58 35.1618 14.82C34.5298 15.052 33.7898 15.168 32.9418 15.168C32.0778 15.168 31.3138 15.04 30.6498 14.784C29.9938 14.52 29.4738 14.156 29.0898 13.692C28.7058 13.228 28.4978 12.688 28.4658 12.072ZM41.1913 6.732H42.7753V15H41.1913V6.732ZM37.4713 6H46.4953V7.392H37.4713V6Z" fill="black"/>
<defs>
<linearGradient id="paint0_linear_11_939" x1="55" y1="10.5" x2="0" y2="10.5" gradientUnits="userSpaceOnUse">
<stop stop-color="#0565F7"/>
<stop offset="1" stop-color="#87B7FF"/>
</linearGradient>
<linearGradient id="paint1_linear_11_939" x1="27.5" y1="6" x2="27.5" y2="15" gradientUnits="userSpaceOnUse">
<stop stop-color="#F4D9AF"/>
<stop offset="1" stop-color="#F5CE9E"/>
</linearGradient>
</defs>
</svg>
