<svg width="37" height="47" viewBox="0 0 37 47" fill="none" xmlns="http://www.w3.org/2000/svg">
<path d="M8.01577 2.48665C8.42231 1.34545 9.50278 0.583374 10.7142 0.583374H25.5038C27.459 0.583374 28.8397 2.49891 28.2214 4.35382L24.8949 14.3334H33.967C36.4973 14.3334 37.785 17.374 36.0243 19.1913L10.6763 45.3534C8.26147 47.8458 4.09473 45.5968 4.85306 42.2103L7.76171 29.221L4.16735 29.2072C1.40188 29.1967 -0.523201 26.4561 0.404853 23.851L8.01577 2.48665ZM11.1183 4.02087L3.64301 25.0046C3.51043 25.3768 3.78545 25.7683 4.18051 25.7698L9.91264 25.7917C10.4333 25.7937 10.925 26.0316 11.2497 26.4386C11.5744 26.8457 11.697 27.3779 11.5833 27.886L8.20749 42.9615L32.6142 17.7709H22.5102C21.9577 17.7709 21.4389 17.5053 21.1159 17.0571C20.7929 16.6089 20.705 16.0327 20.8797 15.5086L24.7089 4.02087H11.1183Z" fill="white"/>
</svg>
