<svg width="310" height="310" viewBox="0 0 310 310" fill="none" xmlns="http://www.w3.org/2000/svg">
<circle opacity="0.2" cx="155" cy="155" r="150" stroke="#D9D9D9" stroke-width="10"/>
<path fill-rule="evenodd" clip-rule="evenodd" d="M22.0333 234.654C3.15913 203.148 -3.91408 165.963 2.07435 129.727C8.06279 93.4912 26.7237 60.5591 54.7312 36.8004C81.4657 14.1215 115.058 1.20767 150 0.0805904C152.76 -0.00842953 155 2.23858 155 4.99999C155 7.76141 152.76 9.99099 150 10.0862C117.428 11.2093 86.1276 23.2802 61.2002 44.4261C34.9996 66.6521 17.5426 97.4595 11.9405 131.358C6.33845 165.256 12.9553 200.042 30.6118 229.515C48.2683 258.989 75.8171 281.236 108.348 292.29C140.879 303.344 176.278 302.488 208.237 289.873C240.195 277.259 266.636 253.706 282.846 223.413C299.057 193.12 303.984 158.055 296.749 124.467C289.866 92.5116 272.399 63.8694 247.255 43.134C245.125 41.3771 244.707 38.2444 246.389 36.0546C248.072 33.8649 251.217 33.4479 253.351 35.2C280.373 57.3826 299.143 88.0894 306.525 122.361C314.258 158.265 308.992 195.749 291.663 228.131C274.335 260.514 246.071 285.691 211.908 299.175C177.746 312.66 139.905 313.575 105.131 301.758C70.3562 289.942 40.9075 266.161 22.0333 234.654Z" fill="#D9D9D9"/>
<path fill-rule="evenodd" clip-rule="evenodd" d="M22.0333 234.654C3.15913 203.148 -3.91408 165.963 2.07435 129.727C8.06279 93.4912 26.7237 60.5591 54.7312 36.8004C81.4657 14.1215 115.058 1.20767 150 0.0805904C152.76 -0.00842953 155 2.23858 155 4.99999C155 7.76141 152.76 9.99099 150 10.0862C117.428 11.2093 86.1276 23.2802 61.2002 44.4261C34.9996 66.6521 17.5426 97.4595 11.9405 131.358C6.33845 165.256 12.9553 200.042 30.6118 229.515C48.2683 258.989 75.8171 281.236 108.348 292.29C140.879 303.344 176.278 302.488 208.237 289.873C240.195 277.259 266.636 253.706 282.846 223.413C299.057 193.12 303.984 158.055 296.749 124.467C289.866 92.5116 272.399 63.8694 247.255 43.134C245.125 41.3771 244.707 38.2444 246.389 36.0546C248.072 33.8649 251.217 33.4479 253.351 35.2C280.373 57.3826 299.143 88.0894 306.525 122.361C314.258 158.265 308.992 195.749 291.663 228.131C274.335 260.514 246.071 285.691 211.908 299.175C177.746 312.66 139.905 313.575 105.131 301.758C70.3562 289.942 40.9075 266.161 22.0333 234.654Z" fill="url(#paint0_linear_0_1)"/>
<defs>
<linearGradient id="paint0_linear_0_1" x1="155" y1="10" x2="155" y2="300" gradientUnits="userSpaceOnUse">
<stop stop-color="#0565F7"/>
<stop offset="1" stop-color="#87B7FF"/>
</linearGradient>
</defs>
</svg>
