<svg width="16" height="18" viewBox="0 0 16 18" fill="none" xmlns="http://www.w3.org/2000/svg">
<path d="M10.7114 0.666626C11.6766 0.666626 12.4715 1.39599 12.575 2.33366L13.6315 2.33329C14.3966 2.33329 15.0241 2.92255 15.085 3.67202L15.0898 3.79163V6.29163C15.0898 7.73582 13.9594 8.916 12.5351 8.99567L12.3599 9.00057C11.8034 10.7424 10.2779 12.0512 8.41734 12.2931L8.41683 13.5833H9.87807C11.3223 13.5833 12.5024 14.7137 12.5821 16.1379L12.5864 16.2916V16.7083C12.5864 17.0247 12.3513 17.2862 12.0462 17.3276L11.9614 17.3333H3.62555C3.30913 17.3333 3.04764 17.0982 3.00625 16.7931L3.00055 16.7083V16.2916C3.00055 14.8474 4.13093 13.6673 5.5552 13.5876L5.70888 13.5833H7.16683L7.16711 12.2927C5.3077 12.05 3.78331 10.7416 3.22704 9.00057L3.20516 8.99996C1.70939 8.99996 0.496826 7.7874 0.496826 6.29163V3.79163C0.496826 2.98621 1.14974 2.33329 1.95516 2.33329L3.01195 2.33366C3.11542 1.39599 3.91031 0.666626 4.87555 0.666626H10.7114ZM9.87807 14.8333H5.70888C5.01742 14.8333 4.43835 15.3145 4.28834 15.9604L4.26532 16.0833H11.3216C11.2265 15.4181 10.6825 14.8978 10.0063 14.8389L9.87807 14.8333ZM10.7114 1.91663H4.87555C4.53037 1.91663 4.25055 2.19645 4.25055 2.54163V7.54037C4.25055 9.49707 5.83677 11.0833 7.79347 11.0833C9.75018 11.0833 11.3364 9.49707 11.3364 7.54037V2.54163C11.3364 2.19645 11.0566 1.91663 10.7114 1.91663ZM13.6315 3.58329H12.5864V7.73567C13.2531 7.6419 13.7751 7.09731 13.8342 6.42008L13.8398 6.29163V3.79163C13.8398 3.693 13.7713 3.61039 13.6792 3.5888L13.6315 3.58329ZM3.00055 3.58329H1.95516C1.8401 3.58329 1.74683 3.67657 1.74683 3.79163V6.29163C1.74683 7.0276 2.29201 7.63623 3.00055 7.73572V3.58329Z" fill="white"/>
</svg>
