<svg width="15" height="16" viewBox="0 0 15 16" fill="none" xmlns="http://www.w3.org/2000/svg">
<path d="M0.0834961 1.54163C0.0834961 1.19645 0.363318 0.916626 0.708496 0.916626H1.17372C1.96577 0.916626 2.44002 1.44912 2.7112 1.94412C2.89197 2.27408 3.02273 2.65677 3.12501 3.00325C3.15272 3.00107 3.18078 2.99996 3.20917 2.99996H13.6236C14.3154 2.99996 14.815 3.66197 14.6253 4.32729L13.1022 9.66823C12.8215 10.6526 11.922 11.3314 10.8984 11.3314H5.94164C4.90957 11.3314 4.00483 10.6415 3.73169 9.64627L3.09794 7.33708L2.04911 3.79644L2.04741 3.79024C1.91766 3.31705 1.79589 2.875 1.61494 2.54471C1.43922 2.22396 1.29913 2.16663 1.17372 2.16663H0.708496C0.363318 2.16663 0.0834961 1.8868 0.0834961 1.54163ZM4.31085 7.03351L4.93711 9.31545C5.06127 9.76785 5.47252 10.0814 5.94164 10.0814H10.8984C11.3637 10.0814 11.7725 9.77287 11.9001 9.32543L13.3475 4.24996H3.48807L4.29938 6.98897C4.30378 7.0038 4.3076 7.01865 4.31085 7.03351ZM7.16683 13.8333C7.16683 14.7538 6.42064 15.5 5.50016 15.5C4.57969 15.5 3.8335 14.7538 3.8335 13.8333C3.8335 12.9128 4.57969 12.1666 5.50016 12.1666C6.42064 12.1666 7.16683 12.9128 7.16683 13.8333ZM5.91683 13.8333C5.91683 13.6032 5.73028 13.4166 5.50016 13.4166C5.27004 13.4166 5.0835 13.6032 5.0835 13.8333C5.0835 14.0634 5.27004 14.25 5.50016 14.25C5.73028 14.25 5.91683 14.0634 5.91683 13.8333ZM13.0002 13.8333C13.0002 14.7538 12.254 15.5 11.3335 15.5C10.413 15.5 9.66683 14.7538 9.66683 13.8333C9.66683 12.9128 10.413 12.1666 11.3335 12.1666C12.254 12.1666 13.0002 12.9128 13.0002 13.8333ZM11.7502 13.8333C11.7502 13.6032 11.5636 13.4166 11.3335 13.4166C11.1034 13.4166 10.9168 13.6032 10.9168 13.8333C10.9168 14.0634 11.1034 14.25 11.3335 14.25C11.5636 14.25 11.7502 14.0634 11.7502 13.8333Z" fill="white"/>
</svg>
