<svg width="38" height="38" viewBox="0 0 38 38" fill="none" xmlns="http://www.w3.org/2000/svg">
<path d="M11.5457 26.454C12.0827 26.991 12.0827 27.8616 11.5457 28.3986C11.0088 28.9356 10.1382 28.9356 9.6012 28.3986C4.41048 23.2079 4.41048 14.7921 9.6012 9.60133C12.9834 6.21909 17.7347 5.04232 22.0658 6.06504C22.8049 6.23955 23.2625 6.98016 23.088 7.71922C22.9135 8.45829 22.1729 8.91595 21.4338 8.74143C17.9914 7.92858 14.2262 8.86538 11.5457 11.5459C7.42897 15.6627 7.42897 22.3373 11.5457 26.454ZM29.7944 13.7594C30.5112 13.5087 31.2955 13.8866 31.5462 14.6034C33.1775 19.2681 32.1309 24.6662 28.3985 28.3986C27.8615 28.9356 26.9909 28.9356 26.4539 28.3986C25.9169 27.8616 25.9169 26.991 26.4539 26.454C29.4115 23.4965 30.2463 19.2169 28.9504 15.5112C28.6997 14.7944 29.0776 14.0101 29.7944 13.7594ZM26.1116 9.22338C26.5278 8.86706 27.138 8.85526 27.5677 9.19521C27.9974 9.53515 28.1263 10.1317 27.8753 10.6187L27.6383 11.0774C27.4872 11.3696 27.2705 11.7881 27.008 12.2932C26.4831 13.3034 25.7748 14.6612 25.0416 16.0505C24.3089 17.4389 23.5492 18.8631 22.9222 20.0044C22.609 20.5745 22.3259 21.0796 22.0942 21.4767C21.8788 21.846 21.667 22.1938 21.5093 22.3931C20.3314 23.882 18.1695 24.1341 16.6807 22.9562C15.1918 21.7782 14.9397 19.6164 16.1176 18.1275C16.2753 17.9282 16.5651 17.6421 16.8749 17.3474C17.208 17.0306 17.6344 16.6389 18.1172 16.2029C19.0836 15.3302 20.2948 14.2632 21.4774 13.2307C22.6608 12.1976 23.8192 11.1959 24.6815 10.4526C25.1128 10.081 25.4701 9.7738 25.7197 9.55949L26.1116 9.22338ZM37.3332 19C37.3332 29.1252 29.1251 37.3333 18.9998 37.3333C8.87462 37.3333 0.666504 29.1252 0.666504 19C0.666504 8.87474 8.87462 0.666626 18.9998 0.666626C29.1251 0.666626 37.3332 8.87474 37.3332 19ZM3.4165 19C3.4165 27.6064 10.3934 34.5833 18.9998 34.5833C27.6063 34.5833 34.5832 27.6064 34.5832 19C34.5832 10.3935 27.6063 3.41663 18.9998 3.41663C10.3934 3.41663 3.4165 10.3935 3.4165 19Z" fill="white"/>
</svg>
