<svg width="16" height="16" viewBox="0 0 16 16" fill="none" xmlns="http://www.w3.org/2000/svg">
<path d="M6.54167 1.91663H9.45833C9.80351 1.91663 10.0833 2.19645 10.0833 2.54163V3.99996H5.91667V2.54163C5.91667 2.19645 6.19649 1.91663 6.54167 1.91663ZM4.66667 2.54163V3.99996H3.20833C1.71256 3.99996 0.5 5.21252 0.5 6.70829V12.9583C0.5 14.4541 1.71256 15.6666 3.20833 15.6666H12.7917C14.2874 15.6666 15.5 14.4541 15.5 12.9583V6.70829C15.5 5.21252 14.2874 3.99996 12.7917 3.99996H11.3333V2.54163C11.3333 1.50609 10.4939 0.666626 9.45833 0.666626H6.54167C5.50613 0.666626 4.66667 1.50609 4.66667 2.54163ZM14.25 6.70829V7.95829C14.25 8.76371 13.5971 9.41663 12.7917 9.41663H9.66667V8.99996C9.66667 8.53972 9.29357 8.16663 8.83333 8.16663H7.16667C6.70643 8.16663 6.33333 8.53972 6.33333 8.99996V9.41663H3.20833C2.40292 9.41663 1.75 8.76371 1.75 7.95829V6.70829C1.75 5.90288 2.40292 5.24996 3.20833 5.24996H12.7917C13.5971 5.24996 14.25 5.90288 14.25 6.70829ZM14.25 10.2409V12.9583C14.25 13.7637 13.5971 14.4166 12.7917 14.4166H3.20833C2.40292 14.4166 1.75 13.7637 1.75 12.9583V10.2409C2.17096 10.5104 2.6714 10.6666 3.20833 10.6666H6.33333C6.33333 11.1269 6.70643 11.5 7.16667 11.5H8.83333C9.29357 11.5 9.66667 11.1269 9.66667 10.6666H12.7917C13.3286 10.6666 13.829 10.5104 14.25 10.2409Z" fill="white"/>
</svg>
