<svg width="20" height="20" viewBox="0 0 20 20" fill="none" xmlns="http://www.w3.org/2000/svg">
<path d="M0 10C0 4.47715 4.47715 0 10 0C15.5228 0 20 4.47715 20 10C20 15.5228 15.5228 20 10 20C4.47715 20 0 15.5228 0 10Z" fill="url(#paint0_linear_16_1080)"/>
<path d="M8.16683 14.5833C7.84283 14.5833 7.89791 14.461 7.78616 14.1525L6.8335 11.0172L14.1668 6.66663" fill="#CBD9E8"/>
<path d="M8.16699 14.5834C8.41699 14.5834 8.52741 14.469 8.66699 14.3334L10.0003 13.0369L8.33716 12.0339" fill="#AFC9DE"/>
<path d="M8.33677 12.0342L12.3668 15.0116C12.8267 15.2654 13.1585 15.1339 13.2731 14.5847L14.9135 6.85443C15.0814 6.1811 14.6569 5.8756 14.2169 6.07535L4.58435 9.7896C3.92685 10.0533 3.93077 10.4202 4.46452 10.5836L6.93644 11.3552L12.6592 7.74477C12.9294 7.58093 13.1774 7.66893 12.9739 7.8496" fill="white"/>
<defs>
<linearGradient id="paint0_linear_16_1080" x1="10" y1="0" x2="10" y2="20" gradientUnits="userSpaceOnUse">
<stop stop-color="#2AABEE"/>
<stop offset="1" stop-color="#229ED9"/>
</linearGradient>
</defs>
</svg>
